<svg width="1805" height="909" viewBox="0 0 1805 909" fill="none" xmlns="http://www.w3.org/2000/svg">
<path fill-rule="evenodd" clip-rule="evenodd" d="M0 337.122L1491.03 424.704L1506.54 160.659C1247.71 47.788 865.059 25.3113 652.236 12.8102C492.82 3.44614 231.955 -11.8769 0 15.5463V337.122Z" fill="#13263C" fill-opacity="0.4"/>
<path fill-rule="evenodd" clip-rule="evenodd" d="M0 339.02L1680.03 437.704L1695.54 173.659C1436.71 60.788 1054.06 38.3113 841.236 25.8102C636.194 13.7661 263.323 -8.13613 0 63.7387V339.02Z" fill="#13263C" fill-opacity="0.5"/>
<path fill-rule="evenodd" clip-rule="evenodd" d="M1728 551.08L933.946 506.467L922.5 884C1121.31 895.17 1467.96 901.032 1728 834.28V551.08Z" fill="#13263C" fill-opacity="0.5"/>
<path fill-rule="evenodd" clip-rule="evenodd" d="M1728 585.619L886.5 570.177L886.5 883C919.18 884.836 956.805 887.542 998.04 890.508C1206.47 905.498 1507.17 927.124 1728 876.592V585.619Z" fill="#13263C" fill-opacity="0.4"/>
<path d="M1728 95V393L0 393V128.5C259 31 653.31 31 866.5 31C1079.69 31 1410 54 1728 95Z" fill="#13263C"/>
<path d="M0 814.5L0 392H1728V787C1469 884.5 1074.69 884.5 861.5 884.5C648.31 884.5 245.5 814.5 0 814.5Z" fill="#13263C"/>
<path d="M1776.5 142.5C1509.2 214.176 1132.17 51.8712 920 31L1008 31.5L1095 33.5C1095 33.5 1128.2 34.6364 1148.5 35.5C1168.8 36.3636 1200.5 38 1200.5 38L1253.5 41L1306.5 45.5L1359 50.5L1387.5 53.5L1413.5 57L1463.5 64L1532.5 43.5L1584 53.5L1633 64L1668 57L1725 90L1776.5 142.5Z" fill="white" fill-opacity="0.5"/>
<path d="M1805 110.5C1554.2 158.041 1407 78.5 931 31.5L1376.5 26L1805 110.5Z" fill="white" fill-opacity="0.5"/>
<path fill-rule="evenodd" clip-rule="evenodd" d="M0 856.4C32.559 854.514 137.544 848.979 209 851.5C299.601 854.696 499 866 499 866L683 877L851.849 882.251C865.978 883.065 879.392 883.5 892 883.5L851.849 882.251C766.544 877.341 655.161 858.66 537.412 838.912C347.184 807.007 140.341 772.316 0 788.402V856.4Z" fill="#13263C" fill-opacity="0.5"/>
<path fill-rule="evenodd" clip-rule="evenodd" d="M0 893.256C55.5632 888.859 245.959 874.349 331 875C579.845 876.906 874 884.5 874 884.5H921C822.545 884.5 667.439 862.106 504.923 838.642C322.829 812.351 131.432 784.718 0 785.738V893.256Z" fill="#13263C" fill-opacity="0.4"/>
</svg>
