<svg width="201" height="200" viewBox="0 0 201 200" fill="none" xmlns="http://www.w3.org/2000/svg">
<path d="M20.9929 50.7938L24.8177 41.5599L25.2797 41.7513L27.1921 37.1343C27.6845 35.9454 28.2895 34.8174 28.994 33.763L28.5783 33.4852C30.0373 31.3017 31.9128 29.4262 34.0963 27.9672L34.3741 28.3829C35.4285 27.6784 36.5565 27.0735 37.7454 26.581L42.3624 24.6686L42.171 24.2067L51.4049 20.3819L51.5962 20.8438L60.8301 17.019L60.6388 16.5571L69.8727 12.7323L70.064 13.1942L79.2979 9.3694L79.1066 8.90746L88.3405 5.08266L88.5318 5.5446L93.1488 3.6322C94.3376 3.13974 95.563 2.76983 96.8068 2.52245L96.7093 2.03206C99.2849 1.51977 101.937 1.51977 104.513 2.03206L104.415 2.52245C105.659 2.76983 106.885 3.13974 108.073 3.63219L112.69 5.54459L112.882 5.08265L122.116 8.90746L121.924 9.3694L131.158 13.1942L131.349 12.7323L140.583 16.5571L140.392 17.019L149.626 20.8438L149.817 20.3819L159.051 24.2067L158.86 24.6686L163.477 26.581C164.666 27.0735 165.794 27.6784 166.848 28.3829L167.126 27.9672C169.309 29.4262 171.185 31.3017 172.644 33.4852L172.228 33.763C172.933 34.8174 173.538 35.9454 174.03 37.1343L175.942 41.7513L176.404 41.5599L180.229 50.7938L179.767 50.9852L183.592 60.2191L184.054 60.0277L187.879 69.2616L187.417 69.4529L191.242 78.6868L191.704 78.4955L195.528 87.7294L195.066 87.9207L196.979 92.5377C197.471 93.7266 197.841 94.952 198.089 96.1957L198.579 96.0982C199.091 98.6738 199.091 101.326 198.579 103.902L198.089 103.804C197.841 105.048 197.471 106.273 196.979 107.462L195.066 112.079L195.528 112.271L191.704 121.505L191.242 121.313L187.417 130.547L187.879 130.738L184.054 139.972L183.592 139.781L179.767 149.015L180.229 149.206L176.404 158.44L175.942 158.249L174.03 162.866C173.538 164.055 172.933 165.183 172.228 166.237L172.644 166.515C171.185 168.698 169.309 170.574 167.126 172.033L166.848 171.617C165.794 172.322 164.666 172.927 163.477 173.419L158.86 175.331L159.051 175.793L149.817 179.618L149.626 179.156L140.392 182.981L140.583 183.443L131.349 187.268L131.158 186.806L121.924 190.631L122.116 191.093L112.882 194.917L112.69 194.455L108.073 196.368C106.885 196.86 105.659 197.23 104.415 197.478L104.513 197.968C101.937 198.48 99.2849 198.48 96.7093 197.968L96.8068 197.478C95.563 197.23 94.3376 196.86 93.1488 196.368L88.5318 194.455L88.3405 194.917L79.1066 191.093L79.2979 190.631L70.064 186.806L69.8727 187.268L60.6388 183.443L60.8301 182.981L51.5963 179.156L51.4049 179.618L42.171 175.793L42.3624 175.331L37.7454 173.419C36.5565 172.927 35.4285 172.322 34.3741 171.617L34.0963 172.033C31.9128 170.574 30.0373 168.698 28.5783 166.515L28.994 166.237C28.2895 165.183 27.6845 164.055 27.1921 162.866L25.2797 158.249L24.8178 158.44L20.993 149.206L21.4549 149.015L17.6301 139.781L17.1681 139.972L13.3433 130.738L13.8053 130.547L9.98048 121.313L9.51854 121.505L5.69374 112.271L6.15568 112.079L4.24328 107.462C3.75083 106.273 3.38092 105.048 3.13354 103.804L2.64314 103.902C2.13086 101.326 2.13086 98.6738 2.64314 96.0982L3.13354 96.1957C3.38092 94.952 3.75082 93.7266 4.24328 92.5377L6.15568 87.9207L5.69374 87.7294L9.51854 78.4955L9.98048 78.6868L13.8053 69.4529L13.3433 69.2616L17.1681 60.0277L17.6301 60.2191L21.4549 50.9852L20.9929 50.7938Z" stroke="#F1F1F1" stroke-opacity="0.7" stroke-dasharray="10 10"/>
<path d="M104.361 53H106.236C106.733 53 107.21 52.8025 107.562 52.4508C107.913 52.0992 108.111 51.6223 108.111 51.125C108.111 50.6277 107.913 50.1508 107.562 49.7992C107.21 49.4475 106.733 49.25 106.236 49.25H104.361C103.864 49.25 103.387 49.4475 103.035 49.7992C102.684 50.1508 102.486 50.6277 102.486 51.125C102.486 51.6223 102.684 52.0992 103.035 52.4508C103.387 52.8025 103.864 53 104.361 53V53ZM104.361 60.5H106.236C106.733 60.5 107.21 60.3025 107.562 59.9508C107.913 59.5992 108.111 59.1223 108.111 58.625C108.111 58.1277 107.913 57.6508 107.562 57.2992C107.21 56.9475 106.733 56.75 106.236 56.75H104.361C103.864 56.75 103.387 56.9475 103.035 57.2992C102.684 57.6508 102.486 58.1277 102.486 58.625C102.486 59.1223 102.684 59.5992 103.035 59.9508C103.387 60.3025 103.864 60.5 104.361 60.5V60.5ZM94.986 53H96.861C97.3582 53 97.8352 52.8025 98.1868 52.4508C98.5384 52.0992 98.736 51.6223 98.736 51.125C98.736 50.6277 98.5384 50.1508 98.1868 49.7992C97.8352 49.4475 97.3582 49.25 96.861 49.25H94.986C94.4887 49.25 94.0118 49.4475 93.6601 49.7992C93.3085 50.1508 93.111 50.6277 93.111 51.125C93.111 51.6223 93.3085 52.0992 93.6601 52.4508C94.0118 52.8025 94.4887 53 94.986 53V53ZM94.986 60.5H96.861C97.3582 60.5 97.8352 60.3025 98.1868 59.9508C98.5384 59.5992 98.736 59.1223 98.736 58.625C98.736 58.1277 98.5384 57.6508 98.1868 57.2992C97.8352 56.9475 97.3582 56.75 96.861 56.75H94.986C94.4887 56.75 94.0118 56.9475 93.6601 57.2992C93.3085 57.6508 93.111 58.1277 93.111 58.625C93.111 59.1223 93.3085 59.5992 93.6601 59.9508C94.0118 60.3025 94.4887 60.5 94.986 60.5V60.5ZM117.486 75.5H115.611V43.625C115.611 43.1277 115.413 42.6508 115.062 42.2992C114.71 41.9475 114.233 41.75 113.736 41.75H87.486C86.9887 41.75 86.5118 41.9475 86.1601 42.2992C85.8085 42.6508 85.611 43.1277 85.611 43.625V75.5H83.736C83.2387 75.5 82.7618 75.6976 82.4101 76.0492C82.0585 76.4008 81.861 76.8777 81.861 77.375C81.861 77.8723 82.0585 78.3492 82.4101 78.7008C82.7618 79.0525 83.2387 79.25 83.736 79.25H117.486C117.983 79.25 118.46 79.0525 118.812 78.7008C119.163 78.3492 119.361 77.8723 119.361 77.375C119.361 76.8777 119.163 76.4008 118.812 76.0492C118.46 75.6976 117.983 75.5 117.486 75.5ZM102.486 75.5H98.736V68H102.486V75.5ZM111.861 75.5H106.236V66.125C106.236 65.6277 106.038 65.1508 105.687 64.7992C105.335 64.4476 104.858 64.25 104.361 64.25H96.861C96.3637 64.25 95.8868 64.4476 95.5351 64.7992C95.1835 65.1508 94.986 65.6277 94.986 66.125V75.5H89.361V45.5H111.861V75.5Z" fill="#F1F1F1" fill-opacity="0.7"/>
<path d="M90.2807 93.012H83.3087V97.352C84.2234 96.9227 85.1754 96.708 86.1647 96.708C87.2101 96.708 88.1341 96.9507 88.9367 97.436C89.7581 97.9213 90.4021 98.6307 90.8687 99.564C91.3354 100.479 91.5687 101.561 91.5687 102.812C91.5687 104.119 91.2701 105.276 90.6727 106.284C90.0754 107.273 89.2261 108.048 88.1247 108.608C87.0421 109.168 85.7821 109.448 84.3447 109.448C81.9181 109.448 79.8834 108.533 78.2407 106.704L80.4807 104.604C81.5261 105.799 82.7767 106.396 84.2327 106.396C85.2594 106.396 86.0527 106.088 86.6127 105.472C87.1914 104.856 87.4807 103.969 87.4807 102.812C87.4807 100.591 86.5287 99.48 84.6247 99.48C84.2141 99.48 83.8221 99.536 83.4487 99.648C83.0941 99.7413 82.7021 99.9093 82.2727 100.152H79.5007V90.128H90.7567L90.2807 93.012ZM100.65 89.764C102.928 89.764 104.654 90.6133 105.83 92.312C107.006 93.992 107.594 96.4187 107.594 99.592C107.594 102.765 106.997 105.201 105.802 106.9C104.626 108.599 102.909 109.448 100.65 109.448C98.3917 109.448 96.6743 108.599 95.4983 106.9C94.3223 105.201 93.7343 102.765 93.7343 99.592C93.7343 96.4187 94.3223 93.992 95.4983 92.312C96.6743 90.6133 98.3917 89.764 100.65 89.764ZM100.65 92.732C99.9784 92.732 99.437 92.956 99.0263 93.404C98.6157 93.8333 98.3077 94.552 98.1023 95.56C97.9157 96.5493 97.8223 97.8933 97.8223 99.592C97.8223 101.291 97.9157 102.644 98.1023 103.652C98.3077 104.641 98.6157 105.36 99.0263 105.808C99.437 106.237 99.9784 106.452 100.65 106.452C101.322 106.452 101.864 106.237 102.274 105.808C102.685 105.379 102.993 104.669 103.198 103.68C103.404 102.672 103.506 101.309 103.506 99.592C103.506 97.856 103.404 96.4933 103.198 95.504C102.993 94.496 102.685 93.7867 102.274 93.376C101.864 92.9467 101.322 92.732 100.65 92.732ZM117.761 93.824V98.164H121.961V101.272H117.761V105.584H114.401V101.272H110.229V98.164H114.401V93.824H117.761Z" fill="#F1F1F1" fill-opacity="0.7"/>
<path d="M89.7677 155H86.1677L85.7927 147.975C85.6761 145.875 85.6177 144.092 85.6177 142.625C85.6177 141.842 85.6261 141.275 85.6427 140.925L82.7177 153.15H79.2427L76.1177 140.9C76.1844 141.917 76.2177 143.058 76.2177 144.325C76.2177 145.675 76.1844 146.917 76.1177 148.05L75.7427 155H72.1677L73.5177 137.7H78.1927L81.0427 149.625L83.7177 137.7H88.4427L89.7677 155ZM96.0722 141.75V155H92.5222V141.75H96.0722ZM94.2722 134.925C94.9056 134.925 95.4222 135.125 95.8222 135.525C96.2389 135.908 96.4472 136.4 96.4472 137C96.4472 137.6 96.2389 138.1 95.8222 138.5C95.4222 138.883 94.9056 139.075 94.2722 139.075C93.6389 139.075 93.1222 138.883 92.7222 138.5C92.3222 138.1 92.1222 137.6 92.1222 137C92.1222 136.4 92.3222 135.908 92.7222 135.525C93.1222 135.125 93.6389 134.925 94.2722 134.925ZM107.503 154.375C107.02 154.708 106.47 154.958 105.853 155.125C105.253 155.308 104.653 155.4 104.053 155.4C102.686 155.383 101.653 154.992 100.953 154.225C100.253 153.458 99.9029 152.333 99.9029 150.85V144.25H97.9279V141.75H99.9029V138.85L103.453 138.425V141.75H106.503L106.153 144.25H103.453V150.775C103.453 151.408 103.561 151.867 103.778 152.15C103.995 152.433 104.328 152.575 104.778 152.575C105.228 152.575 105.728 152.425 106.278 152.125L107.503 154.375ZM115.925 141.375C116.325 141.375 116.767 141.442 117.25 141.575L116.65 145C116.183 144.883 115.792 144.825 115.475 144.825C114.692 144.825 114.083 145.1 113.65 145.65C113.217 146.2 112.875 147.033 112.625 148.15V155H109.075V141.75H112.15L112.475 144.325C112.792 143.392 113.25 142.667 113.85 142.15C114.467 141.633 115.158 141.375 115.925 141.375ZM128.258 151.325C128.258 151.842 128.333 152.225 128.483 152.475C128.633 152.708 128.883 152.883 129.233 153L128.483 155.35C127.699 155.283 127.058 155.1 126.558 154.8C126.074 154.5 125.699 154.033 125.433 153.4C124.566 154.733 123.241 155.4 121.458 155.4C120.141 155.4 119.091 155.025 118.308 154.275C117.541 153.508 117.158 152.517 117.158 151.3C117.158 149.85 117.683 148.742 118.733 147.975C119.783 147.208 121.291 146.825 123.258 146.825H124.783V146.175C124.783 145.358 124.599 144.792 124.233 144.475C123.866 144.158 123.258 144 122.408 144C121.474 144 120.308 144.233 118.908 144.7L118.108 142.325C119.758 141.675 121.391 141.35 123.008 141.35C124.808 141.35 126.133 141.742 126.983 142.525C127.833 143.292 128.258 144.442 128.258 145.975V151.325ZM122.433 152.85C123.433 152.85 124.216 152.358 124.783 151.375V148.85H123.608C121.691 148.85 120.733 149.567 120.733 151C120.733 151.583 120.874 152.042 121.158 152.375C121.458 152.692 121.883 152.85 122.433 152.85Z" fill="#F1F1F1" fill-opacity="0.7"/>
</svg>
