<svg width="201" height="200" viewBox="0 0 201 200" fill="none" xmlns="http://www.w3.org/2000/svg">
<path d="M20.6874 50.7938L24.5122 41.5599L24.9741 41.7513L26.8865 37.1343C27.379 35.9454 27.9839 34.8174 28.6885 33.763L28.2727 33.4852C29.7317 31.3017 31.6073 29.4262 33.7907 27.9672L34.0685 28.3829C35.1229 27.6784 36.251 27.0735 37.4399 26.581L42.0568 24.6686L41.8655 24.2067L51.0994 20.3819L51.2907 20.8438L60.5246 17.019L60.3333 16.5571L69.5671 12.7323L69.7585 13.1942L78.9924 9.3694L78.801 8.90746L88.0349 5.08266L88.2263 5.5446L92.8432 3.6322C94.0321 3.13974 95.2575 2.76983 96.5013 2.52245L96.4037 2.03206C98.9793 1.51977 101.632 1.51977 104.207 2.03206L104.11 2.52245C105.354 2.76983 106.579 3.13974 107.768 3.63219L112.385 5.54459L112.576 5.08265L121.81 8.90746L121.619 9.3694L130.853 13.1942L131.044 12.7323L140.278 16.5571L140.086 17.019L149.32 20.8438L149.512 20.3819L158.746 24.2067L158.554 24.6686L163.171 26.581C164.36 27.0735 165.488 27.6784 166.543 28.3829L166.82 27.9672C169.004 29.4262 170.879 31.3017 172.338 33.4852L171.923 33.763C172.627 34.8174 173.232 35.9454 173.725 37.1343L175.637 41.7513L176.099 41.5599L179.924 50.7938L179.462 50.9852L183.287 60.2191L183.748 60.0277L187.573 69.2616L187.111 69.4529L190.936 78.6868L191.398 78.4955L195.223 87.7294L194.761 87.9207L196.673 92.5377C197.166 93.7266 197.536 94.952 197.783 96.1957L198.273 96.0982C198.786 98.6738 198.786 101.326 198.273 103.902L197.783 103.804C197.536 105.048 197.166 106.273 196.673 107.462L194.761 112.079L195.223 112.271L191.398 121.505L190.936 121.313L187.111 130.547L187.573 130.738L183.748 139.972L183.287 139.781L179.462 149.015L179.924 149.206L176.099 158.44L175.637 158.249L173.725 162.866C173.232 164.055 172.627 165.183 171.923 166.237L172.338 166.515C170.879 168.698 169.004 170.574 166.82 172.033L166.543 171.617C165.488 172.322 164.36 172.927 163.171 173.419L158.554 175.331L158.746 175.793L149.512 179.618L149.32 179.156L140.086 182.981L140.278 183.443L131.044 187.268L130.853 186.806L121.619 190.631L121.81 191.093L112.576 194.917L112.385 194.455L107.768 196.368C106.579 196.86 105.354 197.23 104.11 197.478L104.207 197.968C101.632 198.48 98.9793 198.48 96.4037 197.968L96.5013 197.478C95.2575 197.23 94.0321 196.86 92.8432 196.368L88.2263 194.455L88.0349 194.917L78.801 191.093L78.9924 190.631L69.7585 186.806L69.5671 187.268L60.3333 183.443L60.5246 182.981L51.2907 179.156L51.0994 179.618L41.8655 175.793L42.0568 175.331L37.4399 173.419C36.251 172.927 35.1229 172.322 34.0685 171.617L33.7907 172.033C31.6073 170.574 29.7317 168.698 28.2728 166.515L28.6885 166.237C27.9839 165.183 27.379 164.055 26.8866 162.866L24.9741 158.249L24.5122 158.44L20.6874 149.206L21.1493 149.015L17.3245 139.781L16.8626 139.972L13.0378 130.738L13.4997 130.547L9.67494 121.313L9.213 121.505L5.3882 112.271L5.85014 112.079L3.93774 107.462C3.44528 106.273 3.07538 105.048 2.82799 103.804L2.3376 103.902C1.82532 101.326 1.82532 98.6738 2.3376 96.0982L2.82799 96.1957C3.07537 94.952 3.44528 93.7266 3.93774 92.5377L5.85014 87.9207L5.38819 87.7294L9.213 78.4955L9.67494 78.6868L13.4997 69.4529L13.0378 69.2616L16.8626 60.0277L17.3245 60.2191L21.1493 50.9852L20.6874 50.7938Z" stroke="#F1F1F1" stroke-opacity="0.7" stroke-dasharray="10 10"/>
<path d="M101.368 61.4125C102.369 60.5465 103.171 59.4754 103.721 58.2719C104.271 57.0684 104.556 55.7607 104.556 54.4375C104.556 51.9511 103.568 49.5665 101.81 47.8084C100.052 46.0502 97.6671 45.0625 95.1807 45.0625C92.6943 45.0625 90.3097 46.0502 88.5516 47.8084C86.7934 49.5665 85.8057 51.9511 85.8057 54.4375C85.8057 55.7607 86.0903 57.0684 86.6403 58.2719C87.1903 59.4754 87.9927 60.5465 88.9932 61.4125C86.3684 62.601 84.1416 64.5204 82.5788 66.941C81.016 69.3617 80.1834 72.1812 80.1807 75.0625C80.1807 75.5598 80.3782 76.0367 80.7299 76.3883C81.0815 76.74 81.5584 76.9375 82.0557 76.9375C82.553 76.9375 83.0299 76.74 83.3815 76.3883C83.7331 76.0367 83.9307 75.5598 83.9307 75.0625C83.9307 72.0788 85.1159 69.2173 87.2257 67.1076C89.3355 64.9978 92.197 63.8125 95.1807 63.8125C98.1644 63.8125 101.026 64.9978 103.136 67.1076C105.245 69.2173 106.431 72.0788 106.431 75.0625C106.431 75.5598 106.628 76.0367 106.98 76.3883C107.331 76.74 107.808 76.9375 108.306 76.9375C108.803 76.9375 109.28 76.74 109.632 76.3883C109.983 76.0367 110.181 75.5598 110.181 75.0625C110.178 72.1812 109.345 69.3617 107.783 66.941C106.22 64.5204 103.993 62.601 101.368 61.4125V61.4125ZM95.1807 60.0625C94.0682 60.0625 92.9806 59.7326 92.0556 59.1145C91.1306 58.4964 90.4096 57.6179 89.9839 56.5901C89.5581 55.5623 89.4467 54.4313 89.6638 53.3401C89.8808 52.249 90.4165 51.2467 91.2032 50.46C91.9899 49.6734 92.9922 49.1376 94.0833 48.9206C95.1744 48.7035 96.3054 48.8149 97.3333 49.2407C98.3611 49.6664 99.2396 50.3874 99.8577 51.3124C100.476 52.2374 100.806 53.325 100.806 54.4375C100.806 55.9293 100.213 57.3601 99.1582 58.415C98.1033 59.4699 96.6725 60.0625 95.1807 60.0625ZM113.443 60.6625C114.643 59.3112 115.427 57.642 115.7 55.8556C115.974 54.0693 115.725 52.242 114.984 50.5938C114.243 48.9455 113.042 47.5465 111.524 46.5652C110.007 45.5838 108.238 45.062 106.431 45.0625C105.933 45.0625 105.456 45.26 105.105 45.6117C104.753 45.9633 104.556 46.4402 104.556 46.9375C104.556 47.4348 104.753 47.9117 105.105 48.2633C105.456 48.615 105.933 48.8125 106.431 48.8125C107.923 48.8125 109.353 49.4051 110.408 50.46C111.463 51.5149 112.056 52.9457 112.056 54.4375C112.053 55.4223 111.792 56.3892 111.298 57.2414C110.805 58.0936 110.096 58.8013 109.243 59.2938C108.965 59.4541 108.733 59.6831 108.569 59.9589C108.405 60.2347 108.314 60.5479 108.306 60.8688C108.298 61.1871 108.371 61.5021 108.519 61.7842C108.666 62.0664 108.883 62.3062 109.149 62.4813L109.881 62.9688L110.124 63.1C112.385 64.172 114.291 65.8675 115.62 67.9868C116.949 70.1062 117.644 72.5611 117.624 75.0625C117.624 75.5598 117.822 76.0367 118.174 76.3883C118.525 76.74 119.002 76.9375 119.499 76.9375C119.997 76.9375 120.474 76.74 120.825 76.3883C121.177 76.0367 121.374 75.5598 121.374 75.0625C121.39 72.1852 120.669 69.3517 119.281 66.8314C117.893 64.311 115.883 62.1875 113.443 60.6625V60.6625Z" fill="#F1F1F1" fill-opacity="0.7"/>
<path d="M82.2857 93.512H75.3137V97.852C76.2284 97.4227 77.1804 97.208 78.1697 97.208C79.2151 97.208 80.1391 97.4507 80.9417 97.936C81.7631 98.4213 82.4071 99.1307 82.8737 100.064C83.3404 100.979 83.5737 102.061 83.5737 103.312C83.5737 104.619 83.2751 105.776 82.6777 106.784C82.0804 107.773 81.2311 108.548 80.1297 109.108C79.0471 109.668 77.7871 109.948 76.3497 109.948C73.9231 109.948 71.8884 109.033 70.2457 107.204L72.4857 105.104C73.5311 106.299 74.7817 106.896 76.2377 106.896C77.2644 106.896 78.0577 106.588 78.6177 105.972C79.1964 105.356 79.4857 104.469 79.4857 103.312C79.4857 101.091 78.5337 99.98 76.6297 99.98C76.2191 99.98 75.8271 100.036 75.4537 100.148C75.0991 100.241 74.7071 100.409 74.2777 100.652H71.5057V90.628H82.7617L82.2857 93.512ZM92.6554 90.264C94.9327 90.264 96.6594 91.1133 97.8354 92.812C99.0114 94.492 99.5994 96.9187 99.5994 100.092C99.5994 103.265 99.002 105.701 97.8074 107.4C96.6314 109.099 94.914 109.948 92.6554 109.948C90.3967 109.948 88.6794 109.099 87.5034 107.4C86.3274 105.701 85.7394 103.265 85.7394 100.092C85.7394 96.9187 86.3274 94.492 87.5034 92.812C88.6794 91.1133 90.3967 90.264 92.6554 90.264ZM92.6554 93.232C91.9834 93.232 91.442 93.456 91.0314 93.904C90.6207 94.3333 90.3127 95.052 90.1074 96.06C89.9207 97.0493 89.8274 98.3933 89.8274 100.092C89.8274 101.791 89.9207 103.144 90.1074 104.152C90.3127 105.141 90.6207 105.86 91.0314 106.308C91.442 106.737 91.9834 106.952 92.6554 106.952C93.3274 106.952 93.8687 106.737 94.2794 106.308C94.69 105.879 94.998 105.169 95.2034 104.18C95.4087 103.172 95.5114 101.809 95.5114 100.092C95.5114 98.356 95.4087 96.9933 95.2034 96.004C94.998 94.996 94.69 94.2867 94.2794 93.876C93.8687 93.4467 93.3274 93.232 92.6554 93.232ZM106.938 90.124V109.5H102.822V90.124H106.938ZM117.942 90.124L111.474 98.86L118.446 109.5H113.63L107.106 99.168L113.546 90.124H117.942ZM126.145 94.324V98.664H130.345V101.772H126.145V106.084H122.785V101.772H118.613V98.664H122.785V94.324H126.145Z" fill="#F1F1F1" fill-opacity="0.7"/>
<path d="M52.0723 138.2C54.3223 138.2 56.064 138.667 57.2973 139.6C58.5473 140.533 59.1723 141.925 59.1723 143.775C59.1723 145.708 58.5557 147.167 57.3223 148.15C56.089 149.117 54.439 149.6 52.3723 149.6H50.3973V155.5H46.7223V138.2H52.0723ZM52.0723 146.9C53.139 146.9 53.9557 146.658 54.5223 146.175C55.089 145.692 55.3723 144.892 55.3723 143.775C55.3723 141.825 54.2557 140.85 52.0223 140.85H50.3973V146.9H52.0723ZM71.9587 148.575C71.9587 148.742 71.9337 149.2 71.8837 149.95H63.6087C63.7253 151.15 64.0503 152 64.5837 152.5C65.117 153 65.842 153.25 66.7587 153.25C67.3253 153.25 67.8587 153.158 68.3587 152.975C68.8587 152.792 69.4003 152.5 69.9837 152.1L71.4587 154.1C69.9753 155.3 68.3003 155.9 66.4337 155.9C64.3503 155.9 62.7503 155.275 61.6337 154.025C60.517 152.775 59.9587 151.083 59.9587 148.95C59.9587 147.6 60.192 146.392 60.6587 145.325C61.142 144.242 61.8337 143.392 62.7337 142.775C63.6503 142.158 64.7337 141.85 65.9837 141.85C67.867 141.85 69.3337 142.442 70.3837 143.625C71.4337 144.808 71.9587 146.458 71.9587 148.575ZM68.4337 147.575C68.4337 145.375 67.642 144.275 66.0587 144.275C65.3253 144.275 64.7503 144.55 64.3337 145.1C63.9337 145.633 63.692 146.508 63.6087 147.725H68.4337V147.575ZM81.9282 141.85C83.0949 141.85 84.0032 142.208 84.6532 142.925C85.3032 143.625 85.6282 144.6 85.6282 145.85V155.5H82.0782V146.45C82.0782 145.733 81.9532 145.233 81.7032 144.95C81.4699 144.65 81.1115 144.5 80.6282 144.5C80.1282 144.5 79.6699 144.658 79.2532 144.975C78.8532 145.275 78.4615 145.733 78.0782 146.35V155.5H74.5282V142.25H77.6032L77.8782 143.925C78.4282 143.242 79.0282 142.725 79.6782 142.375C80.3449 142.025 81.0949 141.85 81.9282 141.85ZM100.856 142.975C99.9891 143.308 98.7141 143.475 97.0307 143.475C97.8641 143.842 98.4807 144.3 98.8807 144.85C99.2807 145.383 99.4807 146.058 99.4807 146.875C99.4807 147.725 99.2557 148.492 98.8057 149.175C98.3724 149.842 97.7391 150.367 96.9057 150.75C96.0891 151.133 95.1307 151.325 94.0307 151.325C93.4474 151.325 92.9307 151.267 92.4807 151.15C92.1474 151.367 91.9807 151.658 91.9807 152.025C91.9807 152.292 92.0807 152.508 92.2807 152.675C92.4974 152.825 92.9057 152.9 93.5057 152.9H95.5307C96.5141 152.9 97.3724 153.067 98.1057 153.4C98.8557 153.717 99.4307 154.167 99.8307 154.75C100.247 155.317 100.456 155.967 100.456 156.7C100.456 158.05 99.8724 159.1 98.7057 159.85C97.5557 160.617 95.8891 161 93.7057 161C92.1391 161 90.8974 160.833 89.9807 160.5C89.0807 160.183 88.4474 159.717 88.0807 159.1C87.7141 158.483 87.5307 157.708 87.5307 156.775H90.7057C90.7057 157.208 90.7891 157.55 90.9557 157.8C91.1224 158.067 91.4224 158.258 91.8557 158.375C92.3057 158.508 92.9474 158.575 93.7807 158.575C94.9307 158.575 95.7307 158.433 96.1807 158.15C96.6474 157.867 96.8807 157.467 96.8807 156.95C96.8807 156.483 96.7057 156.125 96.3557 155.875C96.0057 155.625 95.4891 155.5 94.8057 155.5H92.8557C91.5391 155.5 90.5557 155.258 89.9057 154.775C89.2557 154.275 88.9307 153.65 88.9307 152.9C88.9307 152.433 89.0641 151.983 89.3307 151.55C89.6141 151.1 89.9974 150.725 90.4807 150.425C89.6641 149.975 89.0641 149.45 88.6807 148.85C88.3141 148.233 88.1307 147.5 88.1307 146.65C88.1307 145.683 88.3641 144.842 88.8307 144.125C89.3141 143.392 89.9807 142.833 90.8307 142.45C91.6974 142.05 92.6807 141.85 93.7807 141.85C95.1474 141.883 96.2724 141.767 97.1557 141.5C98.0391 141.233 98.9807 140.817 99.9807 140.25L100.856 142.975ZM93.8557 144.225C93.1891 144.225 92.6557 144.442 92.2557 144.875C91.8724 145.292 91.6807 145.867 91.6807 146.6C91.6807 147.35 91.8724 147.942 92.2557 148.375C92.6557 148.808 93.1974 149.025 93.8807 149.025C94.5974 149.025 95.1391 148.817 95.5057 148.4C95.8724 147.983 96.0557 147.367 96.0557 146.55C96.0557 145 95.3224 144.225 93.8557 144.225ZM114.454 142.975C113.588 143.308 112.313 143.475 110.629 143.475C111.463 143.842 112.079 144.3 112.479 144.85C112.879 145.383 113.079 146.058 113.079 146.875C113.079 147.725 112.854 148.492 112.404 149.175C111.971 149.842 111.338 150.367 110.504 150.75C109.688 151.133 108.729 151.325 107.629 151.325C107.046 151.325 106.529 151.267 106.079 151.15C105.746 151.367 105.579 151.658 105.579 152.025C105.579 152.292 105.679 152.508 105.879 152.675C106.096 152.825 106.504 152.9 107.104 152.9H109.129C110.113 152.9 110.971 153.067 111.704 153.4C112.454 153.717 113.029 154.167 113.429 154.75C113.846 155.317 114.054 155.967 114.054 156.7C114.054 158.05 113.471 159.1 112.304 159.85C111.154 160.617 109.488 161 107.304 161C105.738 161 104.496 160.833 103.579 160.5C102.679 160.183 102.046 159.717 101.679 159.1C101.313 158.483 101.129 157.708 101.129 156.775H104.304C104.304 157.208 104.388 157.55 104.554 157.8C104.721 158.067 105.021 158.258 105.454 158.375C105.904 158.508 106.546 158.575 107.379 158.575C108.529 158.575 109.329 158.433 109.779 158.15C110.246 157.867 110.479 157.467 110.479 156.95C110.479 156.483 110.304 156.125 109.954 155.875C109.604 155.625 109.088 155.5 108.404 155.5H106.454C105.138 155.5 104.154 155.258 103.504 154.775C102.854 154.275 102.529 153.65 102.529 152.9C102.529 152.433 102.663 151.983 102.929 151.55C103.213 151.1 103.596 150.725 104.079 150.425C103.263 149.975 102.663 149.45 102.279 148.85C101.913 148.233 101.729 147.5 101.729 146.65C101.729 145.683 101.963 144.842 102.429 144.125C102.913 143.392 103.579 142.833 104.429 142.45C105.296 142.05 106.279 141.85 107.379 141.85C108.746 141.883 109.871 141.767 110.754 141.5C111.638 141.233 112.579 140.817 113.579 140.25L114.454 142.975ZM107.454 144.225C106.788 144.225 106.254 144.442 105.854 144.875C105.471 145.292 105.279 145.867 105.279 146.6C105.279 147.35 105.471 147.942 105.854 148.375C106.254 148.808 106.796 149.025 107.479 149.025C108.196 149.025 108.738 148.817 109.104 148.4C109.471 147.983 109.654 147.367 109.654 146.55C109.654 145 108.921 144.225 107.454 144.225ZM126.809 155.5H123.734L123.559 153.725C123.092 154.458 122.526 155.008 121.859 155.375C121.192 155.725 120.417 155.9 119.534 155.9C118.334 155.9 117.417 155.542 116.784 154.825C116.151 154.092 115.834 153.075 115.834 151.775V142.25H119.384V151.325C119.384 152.025 119.501 152.525 119.734 152.825C119.967 153.108 120.334 153.25 120.834 153.25C121.784 153.25 122.592 152.675 123.259 151.525V142.25H126.809V155.5ZM137.714 141.85C138.881 141.85 139.789 142.208 140.439 142.925C141.089 143.625 141.414 144.6 141.414 145.85V155.5H137.864V146.45C137.864 145.733 137.739 145.233 137.489 144.95C137.256 144.65 136.898 144.5 136.414 144.5C135.914 144.5 135.456 144.658 135.039 144.975C134.639 145.275 134.248 145.733 133.864 146.35V155.5H130.314V142.25H133.389L133.664 143.925C134.214 143.242 134.814 142.725 135.464 142.375C136.131 142.025 136.881 141.85 137.714 141.85ZM154.917 151.825C154.917 152.342 154.992 152.725 155.142 152.975C155.292 153.208 155.542 153.383 155.892 153.5L155.142 155.85C154.359 155.783 153.717 155.6 153.217 155.3C152.734 155 152.359 154.533 152.092 153.9C151.225 155.233 149.9 155.9 148.117 155.9C146.8 155.9 145.75 155.525 144.967 154.775C144.2 154.008 143.817 153.017 143.817 151.8C143.817 150.35 144.342 149.242 145.392 148.475C146.442 147.708 147.95 147.325 149.917 147.325H151.442V146.675C151.442 145.858 151.259 145.292 150.892 144.975C150.525 144.658 149.917 144.5 149.067 144.5C148.134 144.5 146.967 144.733 145.567 145.2L144.767 142.825C146.417 142.175 148.05 141.85 149.667 141.85C151.467 141.85 152.792 142.242 153.642 143.025C154.492 143.792 154.917 144.942 154.917 146.475V151.825ZM149.092 153.35C150.092 153.35 150.875 152.858 151.442 151.875V149.35H150.267C148.35 149.35 147.392 150.067 147.392 151.5C147.392 152.083 147.534 152.542 147.817 152.875C148.117 153.192 148.542 153.35 149.092 153.35Z" fill="#F1F1F1" fill-opacity="0.7"/>
</svg>
