<svg width="200" height="200" viewBox="0 0 200 200" fill="none" xmlns="http://www.w3.org/2000/svg">
<path d="M20.3819 50.7938L24.2067 41.5599L24.6686 41.7513L26.581 37.1343C27.0735 35.9454 27.6784 34.8174 28.3829 33.763L27.9672 33.4852C29.4262 31.3017 31.3017 29.4262 33.4852 27.9672L33.763 28.3829C34.8174 27.6784 35.9454 27.0735 37.1343 26.581L41.7513 24.6686L41.5599 24.2067L50.7938 20.3819L50.9852 20.8438L60.2191 17.019L60.0277 16.5571L69.2616 12.7323L69.4529 13.1942L78.6868 9.3694L78.4955 8.90746L87.7294 5.08266L87.9207 5.5446L92.5377 3.6322C93.7266 3.13974 94.952 2.76983 96.1957 2.52245L96.0982 2.03206C98.6738 1.51977 101.326 1.51977 103.902 2.03206L103.804 2.52245C105.048 2.76983 106.273 3.13974 107.462 3.63219L112.079 5.54459L112.271 5.08265L121.505 8.90746L121.313 9.3694L130.547 13.1942L130.738 12.7323L139.972 16.5571L139.781 17.019L149.015 20.8438L149.206 20.3819L158.44 24.2067L158.249 24.6686L162.866 26.581C164.055 27.0735 165.183 27.6784 166.237 28.3829L166.515 27.9672C168.698 29.4262 170.574 31.3017 172.033 33.4852L171.617 33.763C172.322 34.8174 172.927 35.9454 173.419 37.1343L175.331 41.7513L175.793 41.5599L179.618 50.7938L179.156 50.9852L182.981 60.2191L183.443 60.0277L187.268 69.2616L186.806 69.4529L190.631 78.6868L191.093 78.4955L194.917 87.7294L194.455 87.9207L196.368 92.5377C196.86 93.7266 197.23 94.952 197.478 96.1957L197.968 96.0982C198.48 98.6738 198.48 101.326 197.968 103.902L197.478 103.804C197.23 105.048 196.86 106.273 196.368 107.462L194.455 112.079L194.917 112.271L191.093 121.505L190.631 121.313L186.806 130.547L187.268 130.738L183.443 139.972L182.981 139.781L179.156 149.015L179.618 149.206L175.793 158.44L175.331 158.249L173.419 162.866C172.927 164.055 172.322 165.183 171.617 166.237L172.033 166.515C170.574 168.698 168.698 170.574 166.515 172.033L166.237 171.617C165.183 172.322 164.055 172.927 162.866 173.419L158.249 175.331L158.44 175.793L149.206 179.618L149.015 179.156L139.781 182.981L139.972 183.443L130.738 187.268L130.547 186.806L121.313 190.631L121.505 191.093L112.271 194.917L112.079 194.455L107.462 196.368C106.273 196.86 105.048 197.23 103.804 197.478L103.902 197.968C101.326 198.48 98.6738 198.48 96.0982 197.968L96.1957 197.478C94.952 197.23 93.7266 196.86 92.5377 196.368L87.9207 194.455L87.7294 194.917L78.4955 191.093L78.6868 190.631L69.4529 186.806L69.2616 187.268L60.0277 183.443L60.2191 182.981L50.9852 179.156L50.7938 179.618L41.5599 175.793L41.7513 175.331L37.1343 173.419C35.9454 172.927 34.8174 172.322 33.763 171.617L33.4852 172.033C31.3017 170.574 29.4262 168.698 27.9672 166.515L28.3829 166.237C27.6784 165.183 27.0735 164.055 26.581 162.866L24.6686 158.249L24.2067 158.44L20.3819 149.206L20.8438 149.015L17.019 139.781L16.5571 139.972L12.7323 130.738L13.1942 130.547L9.3694 121.313L8.90746 121.505L5.08266 112.271L5.5446 112.079L3.6322 107.462C3.13974 106.273 2.76983 105.048 2.52245 103.804L2.03206 103.902C1.51977 101.326 1.51977 98.6738 2.03206 96.0982L2.52245 96.1957C2.76983 94.952 3.13974 93.7266 3.63219 92.5377L5.54459 87.9207L5.08265 87.7294L8.90746 78.4955L9.3694 78.6868L13.1942 69.4529L12.7323 69.2616L16.5571 60.0277L17.019 60.2191L20.8438 50.9852L20.3819 50.7938Z" stroke="#F1F1F1" stroke-opacity="0.7" stroke-dasharray="10 10"/>
<path d="M116.875 64.75C116.378 64.75 115.901 64.9475 115.549 65.2992C115.197 65.6508 115 66.1277 115 66.625V74.125C115 74.6223 114.802 75.0992 114.451 75.4508C114.099 75.8025 113.622 76 113.125 76H86.8749C86.3776 76 85.9007 75.8025 85.5491 75.4508C85.1974 75.0992 84.9999 74.6223 84.9999 74.125V66.625C84.9999 66.1277 84.8023 65.6508 84.4507 65.2992C84.0991 64.9475 83.6222 64.75 83.1249 64.75C82.6276 64.75 82.1507 64.9475 81.7991 65.2992C81.4474 65.6508 81.2499 66.1277 81.2499 66.625V74.125C81.2499 75.6168 81.8425 77.0476 82.8974 78.1025C83.9523 79.1574 85.383 79.75 86.8749 79.75H113.125C114.617 79.75 116.047 79.1574 117.102 78.1025C118.157 77.0476 118.75 75.6168 118.75 74.125V66.625C118.75 66.1277 118.552 65.6508 118.201 65.2992C117.849 64.9475 117.372 64.75 116.875 64.75ZM98.6686 67.9563C98.8469 68.127 99.0572 68.2608 99.2874 68.35C99.5118 68.4492 99.7545 68.5004 99.9999 68.5004C100.245 68.5004 100.488 68.4492 100.712 68.35C100.943 68.2608 101.153 68.127 101.331 67.9563L108.831 60.4563C109.184 60.1032 109.383 59.6243 109.383 59.125C109.383 58.6257 109.184 58.1468 108.831 57.7938C108.478 57.4407 107.999 57.2423 107.5 57.2423C107.001 57.2423 106.522 57.4407 106.169 57.7938L101.875 62.1063V44.125C101.875 43.6277 101.677 43.1508 101.326 42.7992C100.974 42.4475 100.497 42.25 99.9999 42.25C99.5026 42.25 99.0257 42.4475 98.6741 42.7992C98.3224 43.1508 98.1249 43.6277 98.1249 44.125V62.1063L93.8311 57.7938C93.6563 57.6189 93.4488 57.4803 93.2203 57.3856C92.9919 57.291 92.7471 57.2423 92.4999 57.2423C92.2526 57.2423 92.0078 57.291 91.7794 57.3856C91.551 57.4803 91.3435 57.6189 91.1686 57.7938C90.9938 57.9686 90.8551 58.1761 90.7605 58.4045C90.6659 58.633 90.6172 58.8778 90.6172 59.125C90.6172 59.3722 90.6659 59.6171 90.7605 59.8455C90.8551 60.0739 90.9938 60.2814 91.1686 60.4563L98.6686 67.9563Z" fill="#F1F1F1" fill-opacity="0.7"/>
<path d="M78.0037 96.872C79.0304 96.872 79.945 97.1147 80.7477 97.6C81.569 98.0853 82.213 98.7947 82.6797 99.728C83.1464 100.643 83.3797 101.753 83.3797 103.06C83.3797 104.367 83.0997 105.543 82.5397 106.588C81.9984 107.633 81.2237 108.455 80.2157 109.052C79.2077 109.649 78.0504 109.948 76.7437 109.948C74.373 109.948 72.6184 109.145 71.4797 107.54C70.341 105.916 69.7717 103.676 69.7717 100.82C69.7717 98.7107 70.089 96.8627 70.7237 95.276C71.377 93.6707 72.301 92.4387 73.4957 91.58C74.6904 90.7027 76.0997 90.264 77.7237 90.264C79.3477 90.264 80.7477 90.6653 81.9237 91.468L80.4677 93.904C79.609 93.4 78.7224 93.148 77.8077 93.148C76.669 93.148 75.7544 93.6427 75.0637 94.632C74.373 95.6213 73.981 97.012 73.8877 98.804C75.0077 97.516 76.3797 96.872 78.0037 96.872ZM76.7717 107.036C77.6304 107.036 78.2744 106.691 78.7037 106C79.1517 105.309 79.3757 104.348 79.3757 103.116C79.3757 101.884 79.1704 101.007 78.7597 100.484C78.3677 99.9427 77.7704 99.672 76.9677 99.672C75.829 99.672 74.8024 100.251 73.8877 101.408C73.925 103.424 74.1584 104.871 74.5877 105.748C75.0357 106.607 75.7637 107.036 76.7717 107.036ZM92.2463 90.264C94.5236 90.264 96.2503 91.1133 97.4263 92.812C98.6023 94.492 99.1903 96.9187 99.1903 100.092C99.1903 103.265 98.593 105.701 97.3983 107.4C96.2223 109.099 94.505 109.948 92.2463 109.948C89.9876 109.948 88.2703 109.099 87.0943 107.4C85.9183 105.701 85.3303 103.265 85.3303 100.092C85.3303 96.9187 85.9183 94.492 87.0943 92.812C88.2703 91.1133 89.9876 90.264 92.2463 90.264ZM92.2463 93.232C91.5743 93.232 91.033 93.456 90.6223 93.904C90.2116 94.3333 89.9036 95.052 89.6983 96.06C89.5116 97.0493 89.4183 98.3933 89.4183 100.092C89.4183 101.791 89.5116 103.144 89.6983 104.152C89.9036 105.141 90.2116 105.86 90.6223 106.308C91.033 106.737 91.5743 106.952 92.2463 106.952C92.9183 106.952 93.4596 106.737 93.8703 106.308C94.281 105.879 94.589 105.169 94.7943 104.18C94.9996 103.172 95.1023 101.809 95.1023 100.092C95.1023 98.356 94.9996 96.9933 94.7943 96.004C94.589 94.996 94.281 94.2867 93.8703 93.876C93.4596 93.4467 92.9183 93.232 92.2463 93.232ZM106.529 90.124V109.5H102.413V90.124H106.529ZM117.533 90.124L111.065 98.86L118.037 109.5H113.221L106.697 99.168L113.137 90.124H117.533ZM125.736 94.324V98.664H129.936V101.772H125.736V106.084H122.376V101.772H118.204V98.664H122.376V94.324H125.736Z" fill="#F1F1F1" fill-opacity="0.7"/>
<path d="M49.2821 138.2C51.9821 138.2 54.1405 138.817 55.7571 140.05C57.3905 141.267 58.2071 143.508 58.2071 146.775C58.2071 149.975 57.4071 152.233 55.8071 153.55C54.2238 154.85 52.1905 155.5 49.7071 155.5H44.7571V138.2H49.2821ZM48.4321 140.9V152.8H49.9321C51.3488 152.8 52.4405 152.367 53.2071 151.5C53.9905 150.617 54.3821 149.042 54.3821 146.775C54.3821 145.208 54.1821 143.992 53.7821 143.125C53.3988 142.258 52.8821 141.675 52.2321 141.375C51.5821 141.058 50.7905 140.9 49.8571 140.9H48.4321ZM66.5169 141.85C68.5002 141.85 70.0502 142.475 71.1669 143.725C72.2836 144.958 72.8419 146.675 72.8419 148.875C72.8419 150.275 72.5836 151.508 72.0669 152.575C71.5669 153.625 70.8336 154.442 69.8669 155.025C68.9169 155.608 67.7919 155.9 66.4919 155.9C64.5086 155.9 62.9502 155.283 61.8169 154.05C60.7002 152.8 60.1419 151.075 60.1419 148.875C60.1419 147.475 60.3919 146.25 60.8919 145.2C61.4086 144.133 62.1419 143.308 63.0919 142.725C64.0586 142.142 65.2002 141.85 66.5169 141.85ZM66.5169 144.5C65.6169 144.5 64.9419 144.858 64.4919 145.575C64.0586 146.275 63.8419 147.375 63.8419 148.875C63.8419 150.375 64.0586 151.483 64.4919 152.2C64.9419 152.9 65.6086 153.25 66.4919 153.25C67.3752 153.25 68.0336 152.9 68.4669 152.2C68.9169 151.483 69.1419 150.375 69.1419 148.875C69.1419 147.375 68.9252 146.275 68.4919 145.575C68.0586 144.858 67.4002 144.5 66.5169 144.5ZM92.1165 142.25L89.2915 155.5H84.9665L83.0665 145.425L81.1665 155.5H76.8915L73.9915 142.25H77.5665L79.1915 152.875L81.3915 142.25H84.9415L86.9165 152.875L88.7165 142.25H92.1165ZM101.472 141.85C102.638 141.85 103.547 142.208 104.197 142.925C104.847 143.625 105.172 144.6 105.172 145.85V155.5H101.622V146.45C101.622 145.733 101.497 145.233 101.247 144.95C101.013 144.65 100.655 144.5 100.172 144.5C99.6718 144.5 99.2134 144.658 98.7968 144.975C98.3968 145.275 98.0051 145.733 97.6218 146.35V155.5H94.0718V142.25H97.1468L97.4218 143.925C97.9718 143.242 98.5718 142.725 99.2218 142.375C99.8884 142.025 100.638 141.85 101.472 141.85ZM111.849 155.9C110.766 155.9 109.924 155.592 109.324 154.975C108.724 154.342 108.424 153.45 108.424 152.3V136.975L111.974 136.575V152.2C111.974 152.783 112.216 153.075 112.699 153.075C112.966 153.075 113.199 153.025 113.399 152.925L114.124 155.45C113.441 155.75 112.683 155.9 111.849 155.9ZM121.4 141.85C123.383 141.85 124.933 142.475 126.05 143.725C127.166 144.958 127.725 146.675 127.725 148.875C127.725 150.275 127.466 151.508 126.95 152.575C126.45 153.625 125.716 154.442 124.75 155.025C123.8 155.608 122.675 155.9 121.375 155.9C119.391 155.9 117.833 155.283 116.7 154.05C115.583 152.8 115.025 151.075 115.025 148.875C115.025 147.475 115.275 146.25 115.775 145.2C116.291 144.133 117.025 143.308 117.975 142.725C118.941 142.142 120.083 141.85 121.4 141.85ZM121.4 144.5C120.5 144.5 119.825 144.858 119.375 145.575C118.941 146.275 118.725 147.375 118.725 148.875C118.725 150.375 118.941 151.483 119.375 152.2C119.825 152.9 120.491 153.25 121.375 153.25C122.258 153.25 122.916 152.9 123.35 152.2C123.8 151.483 124.025 150.375 124.025 148.875C124.025 147.375 123.808 146.275 123.375 145.575C122.941 144.858 122.283 144.5 121.4 144.5ZM140.305 151.825C140.305 152.342 140.38 152.725 140.53 152.975C140.68 153.208 140.93 153.383 141.28 153.5L140.53 155.85C139.747 155.783 139.105 155.6 138.605 155.3C138.122 155 137.747 154.533 137.48 153.9C136.614 155.233 135.289 155.9 133.505 155.9C132.189 155.9 131.139 155.525 130.355 154.775C129.589 154.008 129.205 153.017 129.205 151.8C129.205 150.35 129.73 149.242 130.78 148.475C131.83 147.708 133.339 147.325 135.305 147.325H136.83V146.675C136.83 145.858 136.647 145.292 136.28 144.975C135.914 144.658 135.305 144.5 134.455 144.5C133.522 144.5 132.355 144.733 130.955 145.2L130.155 142.825C131.805 142.175 133.439 141.85 135.055 141.85C136.855 141.85 138.18 142.242 139.03 143.025C139.88 143.792 140.305 144.942 140.305 146.475V151.825ZM134.48 153.35C135.48 153.35 136.264 152.858 136.83 151.875V149.35H135.655C133.739 149.35 132.78 150.067 132.78 151.5C132.78 152.083 132.922 152.542 133.205 152.875C133.505 153.192 133.93 153.35 134.48 153.35ZM155.327 136.975V155.5H152.202L152.002 153.875C151.069 155.225 149.802 155.9 148.202 155.9C146.569 155.9 145.319 155.275 144.452 154.025C143.602 152.758 143.177 151.042 143.177 148.875C143.177 147.508 143.394 146.3 143.827 145.25C144.277 144.183 144.91 143.35 145.727 142.75C146.544 142.15 147.485 141.85 148.552 141.85C149.785 141.85 150.86 142.292 151.777 143.175V136.575L155.327 136.975ZM149.252 153.25C149.769 153.25 150.227 153.125 150.627 152.875C151.027 152.608 151.41 152.2 151.777 151.65V145.725C151.427 145.308 151.069 145 150.702 144.8C150.352 144.583 149.944 144.475 149.477 144.475C148.66 144.475 148.019 144.833 147.552 145.55C147.102 146.267 146.877 147.375 146.877 148.875C146.877 150.458 147.077 151.583 147.477 152.25C147.894 152.917 148.485 153.25 149.252 153.25Z" fill="#F1F1F1" fill-opacity="0.7"/>
</svg>
